<svg xmlns="http://www.w3.org/2000/svg" viewBox="0 0 120 120" width="120" height="120" fill="none">
  <!-- Where in the world is Babe-a? — globe, orbiting plane, heart for home.
       Standalone copy of the WorldLogo component in src/App.jsx; this one
       carries fixed colors and its own animation so it works as a plain <img>. -->
  <style>
    .spin { transform-origin: 60px 60px; animation: orbit 7s linear infinite; }
    @keyframes orbit { to { transform: rotate(360deg); } }
    @media (prefers-reduced-motion: reduce) { .spin { animation: none; } }
  </style>
  <circle cx="60" cy="60" r="46" stroke="#8a8178" stroke-width="1.4" stroke-dasharray="1.5 7" stroke-linecap="round" opacity="0.7"/>
  <circle cx="60" cy="60" r="27" stroke="#6b635a" stroke-width="2.4"/>
  <ellipse cx="60" cy="60" rx="27" ry="9.5" stroke="#8a8178" stroke-width="1.3" opacity="0.8"/>
  <ellipse cx="60" cy="60" rx="10.5" ry="27" stroke="#8a8178" stroke-width="1.3" opacity="0.8"/>
  <g transform="translate(49 53) scale(0.5) translate(-12 -12)">
    <path fill="#c8324a" d="M12 21.35l-1.45-1.32C5.4 15.36 2 12.28 2 8.5 2 5.42 4.42 3 7.5 3c1.74 0 3.41.81 4.5 2.09C13.09 3.81 14.76 3 16.5 3 19.58 3 22 5.42 22 8.5c0 3.78-3.4 6.86-8.55 11.54L12 21.35z"/>
  </g>
  <g class="spin">
    <g transform="translate(60 14) rotate(90) scale(0.8) translate(-12 -12)">
      <path fill="#c8324a" d="M21 16v-2l-8-5V3.5c0-.83-.67-1.5-1.5-1.5S10 2.67 10 3.5V9l-8 5v2l8-2.5V19l-2 1.5V22l3.5-1 3.5 1v-1.5L13 19v-5.5l8 2.5z"/>
    </g>
  </g>
</svg>
